<svg width="178" height="44" viewBox="0 0 178 44" fill="none" xmlns="http://www.w3.org/2000/svg">
  <defs>
    <linearGradient id="markBlue" x1="7" y1="6" x2="36" y2="37" gradientUnits="userSpaceOnUse">
      <stop stop-color="#0D5CFF"/>
      <stop offset="1" stop-color="#083BB8"/>
    </linearGradient>
    <linearGradient id="markGreen" x1="8.5" y1="33.2" x2="28.5" y2="33.2" gradientUnits="userSpaceOnUse">
      <stop stop-color="#22C55E"/>
      <stop offset="1" stop-color="#18B365"/>
    </linearGradient>
  </defs>

  <rect width="178" height="44" rx="14" fill="white"/>

  <g transform="translate(4 4)">
    <rect x="0" y="0" width="36" height="36" rx="12" fill="#F2F7FF"/>

    <path
      d="M18 5.5C11.7 5.5 7 10.1 7 16.2C7 24.3 18 31.8 18 31.8C18 31.8 29 24.3 29 16.2C29 10.1 24.3 5.5 18 5.5Z"
      fill="url(#markBlue)"
    />

    <circle cx="18" cy="16" r="4.2" fill="white"/>

    <path d="M20.5 13.6L27.5 8.5" stroke="white" stroke-width="2" stroke-linecap="round"/>
    <path d="M21.9 16L30.3 14.2" stroke="white" stroke-width="2" stroke-linecap="round"/>
    <path d="M20.7 18.5L27.8 24.2" stroke="white" stroke-width="2" stroke-linecap="round"/>

    <path d="M24.7 10.4Q26.4 15.8 25 21.8" stroke="white" stroke-width="1.7" stroke-linecap="round" fill="none"/>

    <path
      d="M8.5 33.2L28.5 33.2"
      stroke="url(#markGreen)"
      stroke-width="3"
      stroke-linecap="round"
    />
  </g>

  <g transform="translate(50 9)">
    <text
      x="0"
      y="13"
      font-family="Inter, Arial, sans-serif"
      font-size="17"
      font-weight="800"
      letter-spacing="-0.6"
      fill="#0D5CFF"
    >
      Shuttle
    </text>
    <text
      x="0"
      y="30"
      font-family="Inter, Arial, sans-serif"
      font-size="17"
      font-weight="800"
      letter-spacing="-0.6"
      fill="#07152F"
    >
      Connect
    </text>
  </g>
</svg>